<svg width="60" height="60" viewBox="0 0 60 60" fill="none" xmlns="http://www.w3.org/2000/svg">
<g id="Frame" clip-path="url(#clip0_12_0)">
<g id="Group">
<path id="Vector" fill-rule="evenodd" clip-rule="evenodd" d="M60 60H0C0 60 21.0191 57.5903 24.6235 50.9295C27.9303 44.8167 27.1579 34.4083 27.0895 34.3358C27.0493 34.2955 27.0131 34.2552 26.9769 34.2149C26.8602 34.09 26.7476 33.9691 26.6229 33.8603C26.2568 33.5379 25.9511 33.1068 25.6695 32.7038C25.4241 32.3573 25.2632 31.9382 25.0057 31.5836C24.7643 31.2532 24.4747 30.9671 24.2575 30.6044C24.181 30.4795 24.0563 30.3627 24.0241 30.2095C24.0684 30.1652 24.1126 30.1289 24.1569 30.1007C24.3822 29.9436 24.6074 29.9436 24.8166 30.0282C25.1626 30.1652 25.4683 30.5279 25.6574 30.7656L25.6614 30.7696C25.6936 30.8099 25.7218 30.8583 25.7499 30.9067C25.8465 31.0719 25.935 31.2451 26.124 31.2492C26.3493 31.0316 26.3654 30.5198 26.289 30.0322C26.2769 29.9516 26.2608 29.8711 26.2447 29.7905C26.1723 29.46 25.9792 29.0369 25.7821 28.63C25.6896 28.4325 25.593 28.2391 25.5085 28.0618C25.4563 27.953 25.3436 27.7152 25.239 27.4453C25.054 26.9657 24.9132 26.3855 25.2591 26.2767C25.5689 26.176 25.7378 26.5064 25.8947 26.7804C26.2487 27.4009 26.4298 27.8845 26.7073 28.4607C26.7556 28.5615 26.8119 28.6944 26.8763 28.8193C26.9809 29.0249 27.0976 29.2102 27.2021 29.186C27.3429 29.1578 27.3228 28.7025 27.2987 28.3116C27.2906 28.223 27.2866 28.1384 27.2786 28.0618C27.2464 27.6347 27.2021 27.1954 27.174 26.7965C27.1338 26.2686 26.8843 25.1847 27.4395 25.1565C27.7452 25.1404 27.8377 25.3257 27.9182 25.7529C28.067 26.5225 28.1234 27.4694 28.24 28.1988C28.2963 28.5413 28.3688 29.0893 28.59 29.1054C28.8153 29.1216 28.8837 28.6501 28.9561 28.36C29.0325 28.0537 29.113 27.7152 29.1733 27.3848C29.2497 26.9698 29.2538 25.5957 29.7928 25.6239C30.179 25.64 30.1146 26.2203 30.0945 26.454C30.0583 26.8408 30.006 27.1874 29.9618 27.4574C29.9256 27.7032 29.8693 28.0094 29.821 28.3076C29.7365 28.8637 29.6882 29.3915 29.8612 29.448C30.002 29.4963 30.179 29.2868 30.352 29.0128C30.5008 28.771 30.6457 28.4809 30.7543 28.2713C30.9755 27.8563 31.3336 26.998 31.7479 27.2478C31.7962 27.2801 31.8284 27.3284 31.8364 27.3889C31.8847 27.6548 31.6272 28.1786 31.3456 28.7347C31.1364 29.1498 30.9112 29.585 30.7905 29.9396C30.7905 29.9436 30.7865 29.9516 30.7865 29.9557C30.6095 30.4835 30.6416 31.1645 30.5853 31.8214C30.5813 31.8818 30.5732 31.9422 30.5692 31.9987C30.5491 32.1679 30.533 32.3734 30.5129 32.587C30.4727 33.002 30.4164 33.4614 30.2997 33.7878C30.2554 33.9127 30.1871 34.0134 30.1146 34.09C30.1106 34.094 30.1106 34.1222 30.1146 34.1666C30.1509 34.501 29.7325 45.8805 33.3932 52.8959C36.2856 58.4486 60 60 60 60Z" fill="#3D3D3D"/>
<g id="Group_2">
<g id="Group_3">
<path id="Vector_2" d="M27.6043 19.2773C27.721 19.3902 27.8095 19.507 27.8939 19.6199C27.9744 19.7327 28.0508 19.8495 28.1152 19.9624C28.2439 20.1921 28.3445 20.4217 28.4249 20.6514C28.5818 21.1108 28.6462 21.5661 28.6502 22.0255C28.6502 22.4849 28.5859 22.9402 28.429 23.3996C28.3525 23.6293 28.252 23.8589 28.1192 24.0886C28.0548 24.2014 27.9824 24.3183 27.898 24.4311C27.8135 24.544 27.725 24.6608 27.6083 24.7736C27.4916 24.6608 27.3991 24.544 27.3187 24.4311C27.2342 24.3183 27.1618 24.2014 27.0974 24.0886C26.9687 23.8589 26.8681 23.6293 26.7877 23.3996C26.6308 22.9402 26.5664 22.4849 26.5664 22.0255C26.5664 21.5661 26.6348 21.1108 26.7917 20.6514C26.8681 20.4217 26.9687 20.1921 27.1014 19.9624C27.1658 19.8495 27.2382 19.7327 27.3227 19.6199C27.3991 19.507 27.4876 19.3942 27.6043 19.2773Z" fill="#1C442A"/>
<path id="Vector_3" d="M27.6043 13.0034C27.721 13.1162 27.8095 13.233 27.8939 13.3459C27.9744 13.4587 28.0508 13.5756 28.1152 13.6884C28.2439 13.9181 28.3445 14.1477 28.4249 14.3774C28.5818 14.8368 28.6462 15.2921 28.6502 15.7515C28.6502 16.2109 28.5859 16.6662 28.429 17.1256C28.3525 17.3553 28.252 17.585 28.1192 17.8146C28.0548 17.9275 27.9824 18.0443 27.898 18.1572C27.8135 18.27 27.725 18.3868 27.6083 18.4997C27.4916 18.3868 27.3991 18.27 27.3187 18.1572C27.2342 18.0443 27.1618 17.9275 27.0974 17.8146C26.9687 17.585 26.8681 17.3553 26.7877 17.1256C26.6308 16.6662 26.5664 16.2109 26.5664 15.7515C26.5664 15.2921 26.6348 14.8368 26.7917 14.3774C26.8681 14.1477 26.9687 13.9181 27.1014 13.6884C27.1658 13.5756 27.2382 13.4587 27.3227 13.3459C27.3991 13.229 27.4876 13.1162 27.6043 13.0034Z" fill="#009444"/>
<path id="Vector_4" d="M32.1299 20.9859C31.969 20.998 31.8242 21.0262 31.6874 21.0584C31.5507 21.0907 31.4219 21.131 31.2972 21.1753C31.0518 21.2639 30.8225 21.3727 30.6174 21.4977C30.203 21.7435 29.853 22.0497 29.5513 22.3962C29.2536 22.7428 29.0042 23.1337 28.8272 23.585C28.7387 23.8106 28.6663 24.0484 28.614 24.3063C28.5899 24.4352 28.5698 24.5722 28.5577 24.7132C28.5456 24.8543 28.5416 24.9993 28.5537 25.1645C28.7186 25.1525 28.8594 25.1243 29.0002 25.092C29.137 25.0598 29.2657 25.0195 29.3904 24.9752C29.6398 24.8865 29.8651 24.7777 30.0703 24.6568C30.4846 24.411 30.8346 24.1048 31.1323 23.7582C31.43 23.4077 31.6754 23.0168 31.8564 22.5695C31.9449 22.3439 32.0173 22.1061 32.0696 21.8482C32.0937 21.7193 32.1138 21.5863 32.1259 21.4453C32.134 21.2962 32.142 21.1471 32.1299 20.9859Z" fill="#1C442A"/>
<path id="Vector_5" d="M42.6776 17.0651C42.5207 17.0289 42.3719 17.0168 42.2311 17.0047C42.0903 16.9966 41.9535 16.9966 41.8248 17.0047C41.5633 17.0208 41.3139 17.0571 41.0806 17.1175C40.6099 17.2344 40.1915 17.4238 39.8053 17.6696C39.4192 17.9154 39.0692 18.2216 38.7675 18.6004C38.6186 18.7898 38.4778 18.9993 38.3571 19.233C38.2968 19.3499 38.2405 19.4748 38.1882 19.6038C38.1359 19.7367 38.0916 19.8737 38.0554 20.0349C38.2163 20.0712 38.3612 20.0873 38.502 20.0954C38.6427 20.1034 38.7795 20.1034 38.9083 20.0954C39.1697 20.0792 39.4192 20.043 39.6525 19.9825C40.1231 19.8657 40.5415 19.6763 40.9277 19.4265C41.3139 19.1766 41.6599 18.8744 41.9616 18.4956C42.1104 18.3062 42.2512 18.0967 42.3719 17.863C42.4322 17.7461 42.4886 17.6212 42.5409 17.4923C42.5972 17.3633 42.6454 17.2263 42.6776 17.0651Z" fill="#D4BE29"/>
<path id="Vector_6" d="M35.8069 15.7515C35.6459 15.7636 35.5011 15.7918 35.3643 15.8241C35.2276 15.8563 35.0988 15.8966 34.9741 15.9409C34.7287 16.0296 34.4994 16.1384 34.2943 16.2633C33.8799 16.5091 33.53 16.8153 33.2323 17.1619C32.9346 17.5084 32.6852 17.8993 32.5082 18.3506C32.4197 18.5762 32.3473 18.814 32.295 19.0759C32.2708 19.2048 32.2507 19.3419 32.2386 19.4829C32.2266 19.6239 32.2225 19.769 32.2386 19.9342C32.4036 19.9221 32.5444 19.8939 32.6852 19.8617C32.8219 19.8294 32.9507 19.7891 33.0754 19.7448C33.3248 19.6562 33.5501 19.5474 33.7552 19.4224C34.1696 19.1766 34.5196 18.8704 34.8172 18.5239C35.1149 18.1733 35.3603 17.7824 35.5414 17.3351C35.6299 17.1095 35.7023 16.8717 35.7546 16.6138C35.7787 16.4849 35.7988 16.3519 35.8109 16.2109C35.8149 16.0618 35.8229 15.9127 35.8069 15.7515Z" fill="#009444"/>
<path id="Vector_7" d="M31.1001 15.7515C30.9552 15.8241 30.8346 15.9046 30.7179 15.9893C30.6053 16.0739 30.5007 16.1585 30.4041 16.2472C30.211 16.4245 30.0461 16.6139 29.9013 16.8073C29.6116 17.1941 29.4065 17.6091 29.2657 18.0484C29.1249 18.4836 29.0484 18.9429 29.0565 19.4265C29.0605 19.6683 29.0846 19.9181 29.141 20.176C29.1691 20.3049 29.2013 20.4379 29.2456 20.5709C29.2898 20.7038 29.3421 20.8408 29.4185 20.9859C29.5634 20.9134 29.6881 20.8328 29.8007 20.7482C29.9133 20.6635 30.0179 20.5789 30.1185 20.4903C30.3116 20.313 30.4806 20.1236 30.6214 19.9302C30.911 19.5433 31.1121 19.1243 31.2529 18.6891C31.3937 18.2539 31.4702 17.7945 31.4621 17.311C31.4581 17.0692 31.434 16.8194 31.3776 16.5615C31.3495 16.4325 31.3173 16.2995 31.273 16.1666C31.2288 16.0336 31.1765 15.8966 31.1001 15.7515Z" fill="#006838"/>
<path id="Vector_8" d="M34.4833 11.6415C34.3304 11.6979 34.2017 11.7664 34.077 11.8349C33.9563 11.9034 33.8397 11.98 33.7351 12.0565C33.5219 12.2096 33.3368 12.3789 33.1719 12.5562C32.842 12.9108 32.5926 13.2976 32.3995 13.7167C32.2104 14.1358 32.0817 14.579 32.0334 15.0585C32.0093 15.3003 32.0053 15.5501 32.0294 15.8121C32.0415 15.945 32.0616 16.078 32.0897 16.215C32.1179 16.3561 32.1541 16.4971 32.2144 16.6502C32.3673 16.5938 32.496 16.5293 32.6208 16.4568C32.7414 16.3883 32.8581 16.3117 32.9627 16.2352C33.1759 16.082 33.361 15.9128 33.5259 15.7355C33.8558 15.3809 34.1052 14.9941 34.2942 14.575C34.4833 14.1559 34.608 13.7127 34.6563 13.2291C34.6804 12.9873 34.6845 12.7375 34.6603 12.4756C34.6482 12.3426 34.6281 12.2096 34.6 12.0726C34.5758 11.9356 34.5396 11.7946 34.4833 11.6415Z" fill="#D4BE29"/>
<path id="Vector_9" d="M30.6697 9.6991C30.5329 9.78372 30.4163 9.8764 30.3117 9.96908C30.2071 10.0618 30.1105 10.1585 30.022 10.2552C29.845 10.4486 29.6962 10.6501 29.5675 10.8556C29.314 11.2666 29.1491 11.7018 29.0445 12.145C28.9439 12.5923 28.9077 13.0517 28.956 13.5352C28.9801 13.777 29.0284 14.0228 29.1048 14.2726C29.1451 14.3976 29.1893 14.5265 29.2456 14.6554C29.302 14.7844 29.3663 14.9174 29.4548 15.0544C29.5956 14.9698 29.7083 14.8771 29.8169 14.7844C29.9215 14.6917 30.018 14.595 30.1105 14.4983C30.2875 14.3049 30.4364 14.1034 30.5651 13.8979C30.8186 13.4869 30.9835 13.0517 31.0841 12.6044C31.1846 12.1571 31.2208 11.6937 31.1685 11.2142C31.1444 10.9724 31.0961 10.7266 31.0197 10.4768C30.9835 10.3519 30.9352 10.2229 30.8829 10.094C30.8186 9.96908 30.7542 9.8361 30.6697 9.6991Z" fill="#D4BE29"/>
<path id="Vector_10" d="M40.8072 21.0866C40.6584 21.0181 40.5216 20.9698 40.3848 20.9295C40.2481 20.8892 40.1153 20.861 39.9866 20.8408C39.7291 20.7965 39.4797 20.7804 39.2343 20.7844C38.7516 20.7965 38.297 20.8892 37.8666 21.0423C37.4361 21.1995 37.0298 21.417 36.6517 21.7193C36.4626 21.8724 36.2816 22.0457 36.1126 22.2471C36.0282 22.3479 35.9437 22.4567 35.8672 22.5735C35.7868 22.6904 35.7104 22.8153 35.646 22.9644C35.7948 23.0369 35.9316 23.0813 36.0684 23.1215C36.2052 23.1618 36.3379 23.1901 36.4666 23.2102C36.7241 23.2545 36.9775 23.2706 37.2189 23.2666C37.7016 23.2545 38.1562 23.1618 38.5826 23.0047C39.0131 22.8475 39.4194 22.6259 39.7975 22.3237C39.9866 22.1706 40.1676 21.9973 40.3366 21.7999C40.4211 21.6991 40.5055 21.5903 40.582 21.4735C40.6664 21.3566 40.7429 21.2317 40.8072 21.0866Z" fill="#009444"/>
<path id="Vector_11" d="M37.0217 19.37C36.8608 19.3418 36.716 19.3378 36.5752 19.3378C36.4344 19.3378 36.2976 19.3458 36.1689 19.3619C35.9074 19.3902 35.662 19.4425 35.4327 19.5151C34.9701 19.6601 34.5598 19.8737 34.1897 20.1397C33.8196 20.4096 33.4897 20.732 33.2081 21.1269C33.0673 21.3243 32.9426 21.5419 32.834 21.7797C32.7817 21.9006 32.7294 22.0255 32.6852 22.1625C32.6409 22.2995 32.6047 22.4405 32.5806 22.6017C32.7415 22.6299 32.8863 22.6339 33.0311 22.638C33.1719 22.638 33.3087 22.6299 33.4374 22.6138C33.6989 22.5856 33.9443 22.5332 34.1736 22.4607C34.6362 22.3156 35.0425 22.102 35.4126 21.8321C35.7827 21.5621 36.1126 21.2357 36.3902 20.8408C36.531 20.6433 36.6557 20.4257 36.7643 20.188C36.8206 20.0671 36.8689 19.9422 36.9131 19.8092C36.9574 19.6722 36.9976 19.5312 37.0217 19.37Z" fill="#006838"/>
<path id="Vector_12" d="M39.745 14.2767C39.5841 14.2848 39.4393 14.309 39.2985 14.3412C39.1617 14.3734 39.029 14.4097 38.9043 14.45C38.6549 14.5346 38.4296 14.6394 38.2164 14.7563C37.798 14.994 37.44 15.2922 37.1342 15.6347C36.8285 15.9772 36.5751 16.364 36.386 16.8073C36.2935 17.0289 36.217 17.2707 36.1607 17.5245C36.1326 17.6535 36.1125 17.7865 36.0964 17.9275C36.0843 18.0685 36.0762 18.2136 36.0843 18.3788C36.2492 18.3708 36.39 18.3466 36.5308 18.3143C36.6676 18.2821 36.8004 18.2458 36.9251 18.2055C37.1745 18.1209 37.4038 18.0162 37.613 17.8993C38.0313 17.6616 38.3853 17.3634 38.6911 17.0209C38.9928 16.6783 39.2462 16.2915 39.4353 15.8442C39.5278 15.6226 39.6042 15.3808 39.6606 15.127C39.6887 14.998 39.7088 14.865 39.7249 14.724C39.7491 14.583 39.7571 14.4379 39.745 14.2767Z" fill="#D4BE29"/>
<path id="Vector_13" d="M38.9204 10.4647C38.7594 10.4889 38.6186 10.5292 38.4859 10.5775C38.3531 10.6219 38.2284 10.6743 38.1078 10.7307C37.8704 10.8435 37.6532 10.9684 37.4561 11.1094C37.0618 11.3915 36.744 11.726 36.4745 12.0967C36.209 12.4674 35.9958 12.8825 35.855 13.3458C35.7866 13.5796 35.7343 13.8213 35.7061 14.0833C35.6941 14.2162 35.686 14.3492 35.686 14.4902C35.686 14.6313 35.6941 14.7804 35.7222 14.9416C35.8832 14.9174 36.024 14.8771 36.1607 14.8328C36.2935 14.7884 36.4222 14.736 36.5389 14.6837C36.7762 14.5708 36.9934 14.4459 37.1906 14.3049C37.5808 14.0228 37.9026 13.6884 38.1681 13.3136C38.4336 12.9389 38.6428 12.5279 38.7836 12.0645C38.852 11.8307 38.9043 11.589 38.9324 11.327C38.9445 11.1941 38.9525 11.0611 38.9525 10.9201C38.9525 10.771 38.9485 10.6259 38.9204 10.4647Z" fill="#F9ED32"/>
<path id="Vector_14" d="M34.632 7.06787C34.4791 7.12026 34.3464 7.18473 34.2217 7.25323C34.097 7.32173 33.9843 7.39024 33.8757 7.4668C33.6585 7.61589 33.4694 7.7811 33.3005 7.95034C32.9626 8.29688 32.7011 8.67969 32.504 9.09071C32.3068 9.50172 32.166 9.94497 32.1057 10.4245C32.0775 10.6663 32.0695 10.9161 32.0856 11.178C32.0936 11.311 32.1097 11.444 32.1379 11.585C32.162 11.726 32.1982 11.8671 32.2505 12.0202C32.4034 11.9678 32.5361 11.9033 32.6609 11.8389C32.7856 11.7704 32.9022 11.7019 33.0108 11.6253C33.2281 11.4762 33.4171 11.311 33.5861 11.1417C33.924 10.7952 34.1815 10.4124 34.3826 9.99736C34.5797 9.58231 34.7165 9.14309 34.7768 8.65954C34.805 8.41777 34.813 8.16794 34.7969 7.90602C34.7889 7.77304 34.7728 7.64007 34.7487 7.49903C34.7165 7.36203 34.6843 7.22099 34.632 7.06787Z" fill="#F9ED32"/>
<path id="Vector_15" d="M27.7932 6.66882C27.6685 6.77359 27.572 6.88239 27.4794 6.99119C27.3909 7.09999 27.3065 7.20878 27.2341 7.31758C27.0892 7.53518 26.9726 7.7568 26.876 7.98246C26.6869 8.42974 26.5864 8.88105 26.5542 9.33639C26.522 9.79173 26.5542 10.2551 26.6749 10.7226C26.7352 10.9563 26.8197 11.194 26.9323 11.4318C26.9887 11.5526 27.053 11.6695 27.1295 11.7904C27.2059 11.9113 27.2863 12.0322 27.395 12.153C27.5197 12.0483 27.6202 11.9395 27.7128 11.8307C27.8053 11.7219 27.8857 11.6131 27.9582 11.5043C28.103 11.2867 28.2237 11.0651 28.3162 10.8394C28.5053 10.3921 28.6058 9.94082 28.638 9.48548C28.6702 9.03014 28.634 8.56674 28.5133 8.09931C28.453 7.8656 28.3685 7.62786 28.2558 7.39011C28.1995 7.26923 28.1352 7.15237 28.0627 7.03148C27.9823 6.9106 27.9018 6.78971 27.7932 6.66882Z" fill="#F9ED32"/>
<path id="Vector_16" d="M27.7932 0C27.6685 0.104768 27.572 0.213566 27.4794 0.322364C27.3909 0.431162 27.3065 0.53996 27.2341 0.648758C27.0892 0.866353 26.9726 1.08798 26.876 1.31363C26.6869 1.76091 26.5864 2.21222 26.5542 2.66756C26.522 3.1229 26.5542 3.5863 26.6749 4.05373C26.7352 4.28744 26.8197 4.52519 26.9323 4.76293C26.9887 4.88381 27.053 5.00067 27.1295 5.12156C27.2059 5.24244 27.2863 5.36333 27.395 5.48422C27.5197 5.37945 27.6202 5.27065 27.7128 5.16185C27.8053 5.05306 27.8857 4.94426 27.9582 4.83546C28.103 4.61786 28.2237 4.39624 28.3162 4.17058C28.5053 3.7233 28.6058 3.272 28.638 2.81666C28.6702 2.36132 28.634 1.89792 28.5133 1.43049C28.453 1.19678 28.3685 0.959033 28.2558 0.72129C28.1995 0.600403 28.1352 0.483546 28.0627 0.36266C27.9823 0.241773 27.9018 0.120887 27.7932 0Z" fill="#F9ED32"/>
<path id="Vector_17" d="M44.3353 12.7858C44.1744 12.7737 44.0255 12.7817 43.8847 12.7938C43.7439 12.8059 43.6112 12.8301 43.4824 12.8543C43.225 12.9067 42.9876 12.9832 42.7624 13.0759C42.3158 13.2613 41.9296 13.5151 41.5837 13.8133C41.2377 14.1155 40.94 14.4701 40.6987 14.8892C40.578 15.0987 40.4734 15.3244 40.3889 15.5742C40.3447 15.6991 40.3085 15.8281 40.2763 15.9691C40.2441 16.1061 40.22 16.2512 40.2119 16.4164C40.3768 16.4285 40.5217 16.4204 40.6625 16.4083C40.8033 16.3962 40.936 16.3761 41.0647 16.3479C41.3222 16.2955 41.5595 16.2189 41.7848 16.1263C42.2314 15.9409 42.6175 15.687 42.9635 15.3848C43.3054 15.0826 43.6071 14.728 43.8445 14.3089C43.9652 14.0994 44.0698 13.8737 44.1583 13.6239C44.2025 13.499 44.2387 13.37 44.2709 13.233C44.2991 13.092 44.3232 12.9469 44.3353 12.7858Z" fill="#F9ED32"/>
<path id="Vector_18" d="M46.6565 18.4271C46.5077 18.3586 46.3669 18.3183 46.2301 18.282C46.0933 18.2458 45.9606 18.2216 45.8319 18.2014C45.5704 18.1652 45.321 18.1531 45.0796 18.1611C44.5969 18.1813 44.1463 18.282 43.7199 18.4472C43.2935 18.6124 42.8912 18.8421 42.5211 19.1524C42.3361 19.3096 42.1591 19.4869 41.9941 19.6883C41.9096 19.7891 41.8292 19.9019 41.7528 20.0188C41.6763 20.1396 41.6039 20.2646 41.5396 20.4137C41.6884 20.4822 41.8292 20.5265 41.966 20.5628C42.1027 20.599 42.2355 20.6272 42.3642 20.6433C42.6257 20.6836 42.8751 20.6917 43.1165 20.6836C43.5992 20.6635 44.0498 20.5587 44.4762 20.3935C44.9026 20.2283 45.3049 19.9986 45.675 19.6883C45.86 19.5312 46.037 19.3539 46.202 19.1524C46.2864 19.0517 46.3669 18.9388 46.4433 18.822C46.5198 18.7051 46.5922 18.5802 46.6565 18.4271Z" fill="#F9ED32"/>
<path id="Vector_19" d="M23.1191 20.9859C23.28 20.998 23.4248 21.0262 23.5616 21.0584C23.6984 21.0907 23.8271 21.131 23.9518 21.1753C24.1972 21.2639 24.4265 21.3727 24.6317 21.4977C25.046 21.7435 25.396 22.0497 25.6977 22.3962C25.9954 22.7428 26.2448 23.1337 26.4218 23.585C26.5103 23.8106 26.5827 24.0484 26.635 24.3063C26.6592 24.4352 26.6793 24.5722 26.6913 24.7132C26.7034 24.8543 26.7074 24.9993 26.6954 25.1645C26.5304 25.1525 26.3896 25.1243 26.2488 25.092C26.1121 25.0598 25.9833 25.0195 25.8586 24.9752C25.6092 24.8865 25.3839 24.7777 25.1788 24.6568C24.7644 24.411 24.4144 24.1048 24.1168 23.7582C23.8191 23.4077 23.5737 23.0168 23.3927 22.5695C23.3042 22.3439 23.2317 22.1061 23.1794 21.8482C23.1553 21.7193 23.1352 21.5863 23.1231 21.4453C23.1111 21.2962 23.107 21.1471 23.1191 20.9859Z" fill="#1C442A"/>
<path id="Vector_20" d="M19.2046 27.6629C19.3373 27.5702 19.4661 27.5017 19.5948 27.4413C19.7235 27.3808 19.8482 27.3325 19.9729 27.2882C20.2224 27.2035 20.4637 27.1471 20.7051 27.1109C21.1838 27.0424 21.6464 27.0625 22.097 27.1471C22.5475 27.2317 22.982 27.3808 23.4044 27.6186C23.6136 27.7395 23.8187 27.8805 24.0199 28.0497C24.1204 28.1344 24.217 28.227 24.3176 28.3318C24.4141 28.4366 24.5107 28.5454 24.5992 28.6824C24.4664 28.7751 24.3377 28.8436 24.2089 28.904C24.0802 28.9644 23.9555 29.0168 23.8308 29.0571C23.5814 29.1417 23.34 29.1982 23.0987 29.2344C22.6199 29.3029 22.1573 29.2828 21.7068 29.1982C21.2562 29.1135 20.8218 28.9604 20.3994 28.7227C20.1902 28.6018 19.981 28.4608 19.7839 28.2915C19.6833 28.2069 19.5827 28.1142 19.4862 28.0094C19.3896 27.9087 19.2931 27.7959 19.2046 27.6629Z" fill="#1C442A"/>
<path id="Vector_21" d="M12.5671 17.0651C12.724 17.0289 12.8729 17.0168 13.0137 17.0047C13.1545 16.9966 13.2912 16.9966 13.42 17.0047C13.6815 17.0208 13.9309 17.0571 14.1642 17.1175C14.6349 17.2344 15.0532 17.4238 15.4394 17.6696C15.8256 17.9154 16.1756 18.2216 16.4773 18.6004C16.6261 18.7898 16.7669 18.9993 16.8876 19.233C16.948 19.3499 17.0043 19.4748 17.0566 19.6038C17.1089 19.7367 17.1531 19.8737 17.1893 20.0349C17.0284 20.0712 16.8836 20.0873 16.7428 20.0954C16.602 20.1034 16.4652 20.1034 16.3325 20.0954C16.071 20.0792 15.8216 20.043 15.5883 19.9825C15.1176 19.8657 14.6992 19.6763 14.313 19.4265C13.9268 19.1766 13.5809 18.8744 13.2792 18.4956C13.1303 18.3062 12.9895 18.0967 12.8688 17.863C12.8085 17.7461 12.7522 17.6212 12.6999 17.4923C12.6476 17.3633 12.6033 17.2263 12.5671 17.0651Z" fill="#D4BE29"/>
<path id="Vector_22" d="M9.90405 22.4125C10.0449 22.3278 10.1776 22.2674 10.3063 22.215C10.4391 22.1626 10.5638 22.1183 10.6925 22.082C10.946 22.0095 11.1913 21.9692 11.4327 21.9491C11.9155 21.9088 12.3741 21.9531 12.8206 22.0619C13.2631 22.1707 13.6935 22.348 14.0998 22.6059C14.305 22.7348 14.5021 22.892 14.6912 23.0733C14.7877 23.166 14.8803 23.2627 14.9728 23.3715C15.0653 23.4803 15.1538 23.5972 15.2343 23.7382C15.0935 23.8228 14.9607 23.8832 14.832 23.9397C14.6992 23.992 14.5705 24.0364 14.4458 24.0726C14.1924 24.1452 13.947 24.1855 13.7056 24.2096C13.2229 24.2499 12.7643 24.2056 12.3218 24.0928C11.8792 23.98 11.4488 23.8067 11.0425 23.5448C10.8373 23.4158 10.6402 23.2627 10.4512 23.0814C10.3546 22.9887 10.2621 22.892 10.1696 22.7832C10.073 22.6663 9.98451 22.5535 9.90405 22.4125Z" fill="#D4BE29"/>
<path id="Vector_23" d="M19.438 15.7515C19.5989 15.7636 19.7437 15.7918 19.8805 15.8241C20.0173 15.8563 20.146 15.8966 20.2707 15.9409C20.5161 16.0296 20.7454 16.1384 20.9506 16.2633C21.3649 16.5091 21.7149 16.8153 22.0126 17.1619C22.3103 17.5084 22.5597 17.8993 22.7367 18.3506C22.8252 18.5762 22.8976 18.814 22.9499 19.0759C22.974 19.2048 22.9941 19.3419 23.0062 19.4829C23.0183 19.6239 23.0223 19.769 23.0062 19.9342C22.8413 19.9221 22.7005 19.8939 22.5597 19.8617C22.4229 19.8294 22.2942 19.7891 22.1695 19.7448C21.92 19.6562 21.6948 19.5474 21.4896 19.4224C21.0753 19.1766 20.7253 18.8704 20.4276 18.5239C20.1299 18.1733 19.8845 17.7824 19.7035 17.3351C19.615 17.1095 19.5426 16.8717 19.4903 16.6138C19.4661 16.4849 19.446 16.3519 19.434 16.2109C19.4299 16.0618 19.4259 15.9127 19.438 15.7515Z" fill="#009444"/>
<path id="Vector_24" d="M24.1449 15.7515C24.2897 15.8241 24.4104 15.9046 24.527 15.9893C24.6397 16.0739 24.7443 16.1585 24.8408 16.2472C25.0339 16.4245 25.1988 16.6139 25.3436 16.8073C25.6333 17.1941 25.8385 17.6091 25.9792 18.0484C26.12 18.4836 26.1965 18.9429 26.1884 19.4265C26.1844 19.6683 26.1603 19.9181 26.104 20.176C26.0758 20.3049 26.0436 20.4379 25.9994 20.5709C25.9551 20.7038 25.9028 20.8408 25.8264 20.9859C25.6816 20.9134 25.5569 20.8328 25.4442 20.7482C25.3316 20.6635 25.227 20.5789 25.1264 20.4903C24.9333 20.313 24.7644 20.1236 24.6236 19.9302C24.3339 19.5433 24.1328 19.1243 23.992 18.6891C23.8512 18.2539 23.7748 17.7945 23.7828 17.311C23.7868 17.0692 23.811 16.8194 23.8673 16.5615C23.8954 16.4325 23.9276 16.2995 23.9719 16.1666C24.0201 16.0336 24.0684 15.8966 24.1449 15.7515Z" fill="#006838"/>
<path id="Vector_25" d="M20.7655 11.6415C20.9184 11.6979 21.0471 11.7664 21.1718 11.8349C21.2925 11.9034 21.4091 11.98 21.5137 12.0565C21.7269 12.2096 21.912 12.3789 22.0769 12.5562C22.4068 12.9108 22.6562 13.2976 22.8493 13.7167C23.0384 14.1358 23.1671 14.579 23.2154 15.0585C23.2395 15.3003 23.2435 15.5501 23.2194 15.8121C23.2073 15.945 23.1872 16.078 23.159 16.215C23.1309 16.3561 23.0947 16.4971 23.0343 16.6502C22.8815 16.5938 22.7527 16.5293 22.628 16.4568C22.5033 16.3883 22.3907 16.3117 22.2861 16.2352C22.0729 16.082 21.8878 15.9128 21.7229 15.7355C21.393 15.3809 21.1436 14.9941 20.9546 14.575C20.7655 14.1559 20.6408 13.7127 20.5925 13.2291C20.5684 12.9873 20.5643 12.7375 20.5885 12.4756C20.6006 12.3426 20.6207 12.2096 20.6488 12.0726C20.673 11.9356 20.7051 11.7946 20.7655 11.6415Z" fill="#D4BE29"/>
<path id="Vector_26" d="M24.5793 9.6991C24.7161 9.78372 24.8327 9.8764 24.9373 9.96908C25.0419 10.0618 25.1385 10.1585 25.227 10.2552C25.404 10.4486 25.5528 10.6501 25.6816 10.8556C25.935 11.2666 26.0999 11.7018 26.2045 12.145C26.3051 12.5923 26.3413 13.0517 26.293 13.5352C26.2689 13.777 26.2206 14.0228 26.1442 14.2726C26.1039 14.3976 26.0597 14.5265 26.0034 14.6554C25.9471 14.7844 25.8827 14.9174 25.7942 15.0544C25.6534 14.9698 25.5408 14.8771 25.4321 14.7844C25.3275 14.6917 25.231 14.595 25.1385 14.4983C24.9615 14.3049 24.8126 14.1034 24.6839 13.8979C24.4305 13.4869 24.2655 13.0517 24.165 12.6044C24.0644 12.1571 24.0282 11.6937 24.0805 11.2142C24.1046 10.9724 24.1529 10.7266 24.2293 10.4768C24.2655 10.3519 24.3138 10.2229 24.3701 10.094C24.4264 9.96908 24.4908 9.8361 24.5793 9.6991Z" fill="#D4BE29"/>
<path id="Vector_27" d="M14.4377 21.0866C14.5866 21.0181 14.7234 20.9698 14.8601 20.9295C14.9969 20.8892 15.1297 20.861 15.2584 20.8408C15.5159 20.7965 15.7653 20.7804 16.0107 20.7844C16.4934 20.7965 16.948 20.8892 17.3784 21.0423C17.8088 21.1995 18.2152 21.417 18.5933 21.7193C18.7824 21.8724 18.9634 22.0457 19.1323 22.2471C19.2168 22.3479 19.3013 22.4567 19.3777 22.5735C19.4582 22.6904 19.5346 22.8153 19.599 22.9644C19.4501 23.0369 19.3134 23.0813 19.1766 23.1215C19.0398 23.1618 18.9071 23.1901 18.7783 23.2102C18.5169 23.2545 18.2674 23.2706 18.0261 23.2666C17.5433 23.2545 17.0888 23.1618 16.6624 23.0047C16.2319 22.8475 15.8256 22.6259 15.4475 22.3237C15.2584 22.1706 15.0774 21.9973 14.9084 21.7999C14.8239 21.6991 14.7395 21.5903 14.663 21.4735C14.5826 21.3566 14.5061 21.2317 14.4377 21.0866Z" fill="#009444"/>
<path id="Vector_28" d="M18.2231 19.37C18.3841 19.3418 18.5289 19.3378 18.6697 19.3378C18.8105 19.3378 18.9472 19.3458 19.076 19.3619C19.3375 19.3902 19.5829 19.4425 19.8122 19.5151C20.2748 19.6601 20.6851 19.8737 21.0552 20.1397C21.4253 20.4096 21.7552 20.732 22.0368 21.1269C22.1776 21.3243 22.3023 21.5419 22.4109 21.7797C22.4632 21.9006 22.5155 22.0255 22.5597 22.1625C22.604 22.2995 22.6402 22.4405 22.6643 22.6017C22.5034 22.6299 22.3586 22.6339 22.2138 22.638C22.073 22.638 21.9362 22.6299 21.8075 22.6138C21.546 22.5856 21.3006 22.5332 21.0713 22.4607C20.6087 22.3156 20.2024 22.102 19.8323 21.8321C19.4622 21.5621 19.1323 21.2357 18.8547 20.8408C18.7139 20.6433 18.5892 20.4257 18.4806 20.188C18.4243 20.0671 18.376 19.9422 18.3318 19.8092C18.2875 19.6722 18.2473 19.5312 18.2231 19.37Z" fill="#006838"/>
<path id="Vector_29" d="M15.4997 14.2767C15.6606 14.2848 15.8054 14.309 15.9462 14.3412C16.083 14.3734 16.2157 14.4097 16.3404 14.45C16.5899 14.5346 16.8151 14.6394 17.0283 14.7563C17.4467 14.994 17.8047 15.2922 18.1105 15.6347C18.4162 15.9772 18.6696 16.364 18.8587 16.8073C18.9512 17.0289 19.0277 17.2707 19.084 17.5245C19.1121 17.6535 19.1323 17.7865 19.1484 17.9275C19.1604 18.0685 19.1685 18.2136 19.1604 18.3788C18.9955 18.3708 18.8547 18.3466 18.7139 18.3143C18.5771 18.2821 18.4444 18.2458 18.3197 18.2055C18.0702 18.1209 17.8409 18.0162 17.6318 17.8993C17.2134 17.6616 16.8594 17.3634 16.5537 17.0209C16.2519 16.6783 15.9985 16.2915 15.8094 15.8442C15.7169 15.6226 15.6405 15.3808 15.5842 15.127C15.556 14.998 15.5359 14.865 15.5198 14.724C15.4957 14.583 15.4876 14.4379 15.4997 14.2767Z" fill="#D4BE29"/>
<path id="Vector_30" d="M16.3286 10.4647C16.4895 10.4889 16.6303 10.5292 16.763 10.5775C16.8958 10.6219 17.0205 10.6743 17.1412 10.7307C17.3785 10.8435 17.5957 10.9684 17.7929 11.1094C18.1871 11.3915 18.5049 11.726 18.7744 12.0967C19.0399 12.4674 19.2531 12.8825 19.3939 13.3458C19.4623 13.5796 19.5146 13.8213 19.5428 14.0833C19.5549 14.2162 19.5629 14.3492 19.5629 14.4902C19.5629 14.6313 19.5549 14.7804 19.5267 14.9416C19.3658 14.9174 19.225 14.8771 19.0882 14.8328C18.9555 14.7884 18.8267 14.736 18.7101 14.6837C18.4727 14.5708 18.2555 14.4459 18.0584 14.3049C17.6682 14.0228 17.3463 13.6884 17.0808 13.3136C16.8153 12.9389 16.6061 12.5279 16.4653 12.0645C16.397 11.8307 16.3447 11.589 16.3165 11.327C16.3044 11.1941 16.2964 11.0611 16.2964 10.9201C16.2924 10.771 16.3004 10.6259 16.3286 10.4647Z" fill="#F9ED32"/>
<path id="Vector_31" d="M20.6167 7.06787C20.7696 7.12026 20.9024 7.18473 21.0271 7.25323C21.1518 7.32173 21.2644 7.39024 21.373 7.4668C21.5903 7.61589 21.7793 7.7811 21.9483 7.95034C22.2862 8.29688 22.5477 8.67969 22.7448 9.09071C22.9419 9.50172 23.0827 9.94497 23.1431 10.4245C23.1712 10.6663 23.1793 10.9161 23.1632 11.178C23.1551 11.311 23.139 11.444 23.1109 11.585C23.0867 11.726 23.0505 11.8671 22.9982 12.0202C22.8454 11.9678 22.7126 11.9033 22.5879 11.8389C22.4632 11.7704 22.3465 11.7019 22.2379 11.6253C22.0207 11.4762 21.8316 11.311 21.6627 11.1417C21.3248 10.7952 21.0673 10.4124 20.8662 9.99736C20.669 9.58231 20.5323 9.14309 20.4719 8.65954C20.4438 8.41777 20.4357 8.16794 20.4518 7.90602C20.4599 7.77304 20.4759 7.64007 20.5001 7.49903C20.5282 7.36203 20.5604 7.22099 20.6167 7.06787Z" fill="#F9ED32"/>
<path id="Vector_32" d="M10.9138 12.7858C11.0747 12.7737 11.2236 12.7817 11.3644 12.7938C11.5052 12.8059 11.6379 12.8301 11.7667 12.8543C12.0241 12.9067 12.2615 12.9832 12.4867 13.0759C12.9333 13.2613 13.3194 13.5151 13.6654 13.8133C14.0114 14.1155 14.3091 14.4701 14.5504 14.8892C14.6711 15.0987 14.7757 15.3244 14.8602 15.5742C14.9044 15.6991 14.9406 15.8281 14.9728 15.9691C15.005 16.1061 15.0291 16.2512 15.0372 16.4164C14.8763 16.4285 14.7274 16.4204 14.5866 16.4083C14.4458 16.3962 14.3131 16.3761 14.1843 16.3479C13.9269 16.2955 13.6895 16.2189 13.4643 16.1263C13.0177 15.9409 12.6316 15.687 12.2856 15.3848C11.9437 15.0826 11.6419 14.728 11.4046 14.3089C11.2839 14.0994 11.1793 13.8737 11.0908 13.6239C11.0466 13.499 11.0104 13.37 10.9782 13.233C10.95 13.092 10.9219 12.9469 10.9138 12.7858Z" fill="#F9ED32"/>
<path id="Vector_33" d="M8.58862 18.4271C8.73747 18.3586 8.87826 18.3183 9.01504 18.282C9.15181 18.2458 9.28457 18.2216 9.4133 18.2014C9.67478 18.1652 9.92419 18.1531 10.1656 18.1611C10.6483 18.1813 11.0988 18.282 11.5253 18.4472C11.9517 18.6124 12.354 18.8421 12.7241 19.1524C12.9091 19.3096 13.0861 19.4869 13.251 19.6883C13.3355 19.7891 13.416 19.9019 13.4924 20.0188C13.5688 20.1396 13.6413 20.2646 13.7056 20.4137C13.5568 20.4822 13.416 20.5265 13.2792 20.5628C13.1424 20.599 13.0097 20.6272 12.8809 20.6433C12.6195 20.6836 12.37 20.6917 12.1287 20.6836C11.6459 20.6635 11.1954 20.5587 10.769 20.3935C10.3426 20.2283 9.94028 19.9986 9.57018 19.6883C9.38514 19.5312 9.20813 19.3539 9.0432 19.1524C8.95872 19.0517 8.87826 18.9388 8.80183 18.822C8.7254 18.7051 8.65299 18.5802 8.58862 18.4271Z" fill="#F9ED32"/>
<path id="Vector_34" d="M6.61768 14.0752C6.77456 14.0309 6.91939 14.0108 7.06018 13.9946C7.20098 13.9825 7.33776 13.9745 7.46649 13.9745C7.72797 13.9785 7.97738 14.0027 8.21473 14.051C8.68942 14.1437 9.11986 14.317 9.51409 14.5467C9.91235 14.7764 10.2744 15.0625 10.5922 15.4251C10.7531 15.6065 10.8979 15.8079 11.0307 16.0376C11.095 16.1504 11.1594 16.2713 11.2157 16.4003C11.2721 16.5292 11.3243 16.6662 11.3686 16.8234C11.2117 16.8677 11.0669 16.8879 10.9261 16.904C10.7853 16.9201 10.6485 16.9241 10.5198 16.9241C10.2583 16.9201 10.0089 16.8959 9.77155 16.8476C9.29686 16.7508 8.86642 16.5816 8.47219 16.3519C8.07795 16.1222 7.7159 15.8321 7.3981 15.4695C7.23719 15.2881 7.09237 15.0866 6.95961 14.857C6.89123 14.7441 6.83088 14.6232 6.77456 14.4943C6.7102 14.3694 6.6579 14.2324 6.61768 14.0752Z" fill="#F9ED32"/>
<path id="Vector_35" d="M11.996 8.70386C12.1569 8.71998 12.3018 8.75221 12.4385 8.79251C12.5753 8.82877 12.704 8.8731 12.8247 8.92145C13.0701 9.01816 13.2914 9.13502 13.4925 9.26396C13.8988 9.52589 14.2367 9.84019 14.5264 10.1988C14.812 10.5575 15.0453 10.9564 15.2102 11.4117C15.2907 11.6374 15.3551 11.8832 15.3953 12.1411C15.4154 12.27 15.4315 12.407 15.4355 12.548C15.4395 12.6891 15.4436 12.8382 15.4234 12.9994C15.2625 12.9832 15.1177 12.951 14.9809 12.9147C14.8442 12.8785 14.7154 12.8341 14.5947 12.7858C14.3494 12.6891 14.1281 12.5722 13.927 12.4433C13.5207 12.1814 13.1827 11.8671 12.8971 11.5084C12.6115 11.1498 12.3782 10.7509 12.2173 10.2955C12.1368 10.0699 12.0725 9.82407 12.0282 9.56618C12.0081 9.43724 11.992 9.30023 11.988 9.1592C11.9759 9.0101 11.9759 8.86504 11.996 8.70386Z" fill="#F9ED32"/>
<path id="Vector_36" d="M16.5337 5.48425C16.6906 5.52455 16.8273 5.57693 16.9561 5.63335C17.0848 5.68976 17.2055 5.75423 17.3181 5.8187C17.5474 5.95168 17.7486 6.09674 17.9296 6.2539C18.2957 6.57223 18.5853 6.93086 18.8186 7.32576C19.052 7.72065 19.2249 8.15181 19.3215 8.62327C19.3698 8.86101 19.3979 9.11085 19.4019 9.37277C19.4019 9.50574 19.3979 9.63872 19.3858 9.77975C19.3698 9.92078 19.3496 10.0658 19.3094 10.223C19.1525 10.1827 19.0157 10.1303 18.883 10.0739C18.7543 10.0175 18.6336 9.95705 18.5169 9.88855C18.2876 9.75557 18.0865 9.61051 17.9055 9.45336C17.5394 9.13502 17.2497 8.77639 17.0204 8.37747C16.7911 7.98257 16.6182 7.55141 16.5216 7.07592C16.4733 6.83818 16.4452 6.58835 16.4412 6.32643C16.4412 6.19345 16.4452 6.06048 16.4573 5.91944C16.4733 5.78647 16.4935 5.64141 16.5337 5.48425Z" fill="#F9ED32"/>
<path id="Vector_37" d="M23.666 2.76428C23.7987 2.86099 23.9033 2.96173 24.0039 3.06247C24.1004 3.16321 24.1889 3.26798 24.2694 3.37274C24.4303 3.58228 24.563 3.79182 24.6716 4.00941C24.8929 4.44058 25.0257 4.88383 25.09 5.33917C25.1584 5.7945 25.1544 6.25387 25.0699 6.73339C25.0257 6.97113 24.9573 7.21291 24.8647 7.45871C24.8165 7.5796 24.7602 7.70451 24.6958 7.82943C24.6274 7.95434 24.555 8.08329 24.4584 8.21224C24.3257 8.11553 24.2211 8.01479 24.1205 7.91405C24.024 7.81331 23.9315 7.70854 23.851 7.6078C23.6901 7.39827 23.5573 7.18873 23.4447 6.97113C23.2234 6.53997 23.0947 6.09672 23.0263 5.64138C22.962 5.18604 22.962 4.72264 23.0505 4.24716C23.0947 4.00941 23.1631 3.76764 23.2556 3.52184C23.3039 3.40095 23.3602 3.27604 23.4246 3.15112C23.493 3.02217 23.5694 2.89323 23.666 2.76428Z" fill="#F9ED32"/>
<path id="Vector_38" d="M3.76929 20.3895C3.90606 20.3008 4.03881 20.2364 4.16754 20.18C4.29627 20.1235 4.425 20.0792 4.54971 20.0389C4.80315 19.9624 5.04451 19.914 5.28588 19.8858C5.76459 19.8334 6.22722 19.8656 6.67375 19.9624C7.12028 20.0591 7.55474 20.2243 7.96506 20.4781C8.17023 20.6031 8.37137 20.7521 8.56848 20.9294C8.66503 21.0181 8.76158 21.1148 8.8541 21.2196C8.94663 21.3284 9.03915 21.4412 9.12765 21.5782C8.99088 21.6669 8.85812 21.7313 8.72939 21.7877C8.60067 21.8442 8.47194 21.8925 8.34723 21.9288C8.09379 22.0053 7.85243 22.0537 7.61106 22.0819C7.13234 22.1343 6.66972 22.102 6.22319 22.0013C5.77666 21.9006 5.34622 21.7354 4.93188 21.4855C4.72671 21.3606 4.52557 21.2115 4.32846 21.0342C4.23191 20.9456 4.13536 20.8489 4.04284 20.7441C3.95031 20.6393 3.85779 20.5265 3.76929 20.3895Z" fill="#F9ED32"/>
<path id="Vector_39" d="M45.3046 22.4125C45.1638 22.3278 45.031 22.2674 44.9023 22.215C44.7695 22.1626 44.6448 22.1183 44.5161 22.082C44.2627 22.0095 44.0173 21.9692 43.7759 21.9491C43.2932 21.9088 42.8346 21.9531 42.388 22.0619C41.9455 22.1707 41.5151 22.348 41.1088 22.6059C40.9036 22.7348 40.7065 22.892 40.5174 23.0733C40.4209 23.166 40.3284 23.2627 40.2358 23.3715C40.1433 23.4803 40.0548 23.5972 39.9744 23.7382C40.1152 23.8228 40.2479 23.8832 40.3766 23.9397C40.5094 23.992 40.6381 24.0364 40.7628 24.0726C41.0163 24.1452 41.2617 24.1855 41.503 24.2096C41.9858 24.2499 42.4444 24.2056 42.8869 24.0928C43.3294 23.98 43.7598 23.8067 44.1661 23.5448C44.3713 23.4158 44.5684 23.2627 44.7575 23.0814C44.854 22.9887 44.9465 22.892 45.0391 22.7832C45.1316 22.6663 45.2241 22.5535 45.3046 22.4125Z" fill="#D4BE29"/>
<path id="Vector_40" d="M45.55 28.231C45.4454 28.1061 45.3368 28.0094 45.2282 27.9167C45.1195 27.828 45.0109 27.7434 44.9023 27.6709C44.6851 27.5258 44.4638 27.409 44.2385 27.3122C43.792 27.1229 43.3415 27.0221 42.8869 26.9899C42.4323 26.9576 41.9697 26.9899 41.503 27.1108C41.2697 27.1712 41.0324 27.2558 40.795 27.3687C40.6743 27.4251 40.5577 27.4895 40.437 27.5661C40.3163 27.6427 40.1956 27.7233 40.075 27.8321C40.1795 27.957 40.2882 28.0577 40.3968 28.1464C40.5054 28.239 40.614 28.3196 40.7226 28.3922C40.9399 28.5372 41.1611 28.6581 41.3864 28.7508C41.8329 28.9402 42.2835 29.0369 42.738 29.0732C43.1926 29.1054 43.6552 29.0691 44.1219 28.9482C44.3552 28.8878 44.5926 28.8032 44.8299 28.6904C44.9506 28.6339 45.0673 28.5695 45.1879 28.4969C45.3086 28.4204 45.4293 28.3398 45.55 28.231Z" fill="#D4BE29"/>
<path id="Vector_41" d="M42.0421 25.773C41.9215 25.6642 41.8008 25.5796 41.6801 25.503C41.5594 25.4265 41.4427 25.362 41.3221 25.3056C41.0847 25.1887 40.8514 25.1041 40.6181 25.0396C40.1514 24.9147 39.6888 24.8744 39.2342 24.9026C38.7756 24.9308 38.3251 25.0275 37.8786 25.2129C37.6533 25.3056 37.432 25.4224 37.2148 25.5635C37.1062 25.636 36.9935 25.7166 36.8849 25.8052C36.7763 25.8979 36.6677 25.9946 36.5591 26.1195C36.6798 26.2283 36.8004 26.313 36.9211 26.3895C37.0418 26.4661 37.1585 26.5306 37.2792 26.587C37.5165 26.7038 37.7498 26.7884 37.9832 26.8529C38.4498 26.9778 38.9124 27.0181 39.367 26.9859C39.8256 26.9537 40.2761 26.8569 40.7227 26.6756C40.9479 26.5829 41.1692 26.4661 41.3864 26.325C41.495 26.2525 41.6077 26.1719 41.7163 26.0833C41.8289 25.9906 41.9376 25.8939 42.0421 25.773Z" fill="#009444"/>
<path id="Vector_42" d="M41.66 30.4191C41.5675 30.2861 41.471 30.1773 41.3704 30.0726C41.2739 29.9718 41.1733 29.8792 41.0687 29.7945C40.8676 29.6253 40.6584 29.4883 40.4452 29.3714C40.0228 29.1377 39.5843 28.9927 39.1337 28.9121C38.6832 28.8315 38.2206 28.8194 37.7418 28.8919C37.5045 28.9282 37.2591 28.9886 37.0137 29.0773C36.889 29.1216 36.7643 29.174 36.6356 29.2344C36.5068 29.2989 36.3781 29.3674 36.2454 29.4641C36.3379 29.5971 36.4344 29.7099 36.531 29.8106C36.6275 29.9114 36.7281 30.0041 36.8287 30.0887C37.0298 30.2579 37.239 30.3949 37.4522 30.5118C37.8746 30.7455 38.3131 30.8906 38.7677 30.9671C39.2182 31.0437 39.6808 31.0598 40.1595 30.9832C40.3969 30.947 40.6423 30.8865 40.8877 30.7979C41.0124 30.7536 41.1371 30.7012 41.2658 30.6407C41.3986 30.5843 41.5273 30.5158 41.66 30.4191Z" fill="#009444"/>
<path id="Vector_43" d="M48.5913 14.0752C48.4344 14.0309 48.2895 14.0108 48.1487 13.9946C48.0079 13.9825 47.8712 13.9745 47.7424 13.9745C47.481 13.9785 47.2315 14.0027 46.9942 14.051C46.5195 14.1437 46.0891 14.317 45.6948 14.5467C45.2966 14.7764 44.9345 15.0625 44.6167 15.4251C44.4558 15.6065 44.311 15.8079 44.1782 16.0376C44.1139 16.1504 44.0495 16.2713 43.9932 16.4003C43.9369 16.5292 43.8846 16.6662 43.8403 16.8234C43.9972 16.8677 44.142 16.8879 44.2828 16.904C44.4236 16.9201 44.5604 16.9241 44.6891 16.9241C44.9506 16.9201 45.2 16.8959 45.4374 16.8476C45.9121 16.7508 46.3425 16.5816 46.7367 16.3519C47.131 16.1222 47.493 15.8321 47.8108 15.4695C47.9717 15.2881 48.1166 15.0866 48.2493 14.857C48.3177 14.7441 48.378 14.6232 48.4344 14.4943C48.4987 14.3694 48.551 14.2324 48.5913 14.0752Z" fill="#F9ED32"/>
<path id="Vector_44" d="M43.2128 8.70386C43.0519 8.71998 42.9071 8.75221 42.7703 8.79251C42.6335 8.82877 42.5048 8.8731 42.3841 8.92145C42.1387 9.01816 41.9175 9.13502 41.7163 9.26396C41.31 9.52589 40.9721 9.84019 40.6825 10.1988C40.3968 10.5575 40.1635 10.9564 39.9986 11.4117C39.9181 11.6374 39.8538 11.8832 39.8135 12.1411C39.7934 12.27 39.7773 12.407 39.7733 12.548C39.7693 12.6891 39.7653 12.8382 39.7854 12.9994C39.9463 12.9832 40.0911 12.951 40.2279 12.9147C40.3647 12.8785 40.4934 12.8341 40.6141 12.7858C40.8595 12.6891 41.0807 12.5722 41.2819 12.4433C41.6882 12.1814 42.0261 11.8671 42.3117 11.5084C42.5973 11.1498 42.8306 10.7509 42.9915 10.2955C43.072 10.0699 43.1364 9.82407 43.1806 9.56618C43.2007 9.43724 43.2168 9.30023 43.2208 9.1592C43.2329 9.0101 43.2329 8.86504 43.2128 8.70386Z" fill="#F9ED32"/>
<path id="Vector_45" d="M38.6751 5.48425C38.5182 5.52455 38.3815 5.57693 38.2527 5.63335C38.124 5.68976 38.0033 5.75423 37.8907 5.8187C37.6614 5.95168 37.4603 6.09674 37.2792 6.2539C36.9132 6.57223 36.6235 6.93086 36.3902 7.32576C36.1569 7.72065 35.9839 8.15181 35.8873 8.62327C35.8391 8.86101 35.8109 9.11085 35.8069 9.37277C35.8069 9.50574 35.8109 9.63872 35.823 9.77975C35.8391 9.92078 35.8592 10.0658 35.8994 10.223C36.0563 10.1827 36.1931 10.1303 36.3258 10.0739C36.4546 10.0175 36.5752 9.95705 36.6919 9.88855C36.9212 9.75557 37.1223 9.61051 37.3034 9.45336C37.6694 9.13502 37.9591 8.77639 38.1884 8.37747C38.4177 7.98257 38.5907 7.55141 38.6872 7.07592C38.7355 6.83818 38.7636 6.58835 38.7677 6.32643C38.7677 6.19345 38.7636 6.06048 38.7516 5.91944C38.7355 5.78647 38.7154 5.64141 38.6751 5.48425Z" fill="#F9ED32"/>
<path id="Vector_46" d="M31.5427 2.76428C31.41 2.86099 31.3054 2.96173 31.2048 3.06247C31.1083 3.16321 31.0198 3.26798 30.9393 3.37274C30.7784 3.58228 30.6457 3.79182 30.537 4.00941C30.3158 4.44058 30.183 4.88383 30.1187 5.33917C30.0503 5.7945 30.0543 6.25387 30.1388 6.73339C30.183 6.97113 30.2514 7.21291 30.3439 7.45871C30.3922 7.5796 30.4485 7.70451 30.5129 7.82943C30.5813 7.95434 30.6537 8.08329 30.7503 8.21224C30.883 8.11553 30.9876 8.01479 31.0882 7.91405C31.1847 7.81331 31.2772 7.70854 31.3577 7.6078C31.5186 7.39827 31.6514 7.18873 31.764 6.97113C31.9853 6.53997 32.114 6.09672 32.1824 5.64138C32.2467 5.18604 32.2467 4.72264 32.1582 4.24716C32.114 4.00941 32.0456 3.76764 31.9531 3.52184C31.9048 3.40095 31.8485 3.27604 31.7841 3.15112C31.7117 3.02217 31.6393 2.89323 31.5427 2.76428Z" fill="#F9ED32"/>
<path id="Vector_47" d="M51.4355 20.3895C51.2987 20.3008 51.166 20.2364 51.0372 20.18C50.9085 20.1235 50.7798 20.0792 50.6551 20.0389C50.4057 19.9624 50.1603 19.914 49.9189 19.8858C49.4402 19.8334 48.9776 19.8656 48.5311 19.9624C48.0845 20.0591 47.6501 20.2243 47.2397 20.4781C47.0346 20.6031 46.8334 20.7521 46.6363 20.9294C46.5398 21.0181 46.4432 21.1148 46.3507 21.2196C46.2582 21.3284 46.1656 21.4412 46.0771 21.5782C46.2139 21.6669 46.3467 21.7313 46.4754 21.7877C46.6041 21.8442 46.7329 21.8925 46.8576 21.9288C47.111 22.0053 47.3524 22.0537 47.5937 22.0819C48.0725 22.1343 48.5351 22.102 48.9816 22.0013C49.4281 21.9006 49.8586 21.7354 50.2729 21.4855C50.4781 21.3606 50.6792 21.2115 50.8763 21.0342C50.9729 20.9456 51.0694 20.8489 51.162 20.7441C51.2585 20.6393 51.351 20.5265 51.4355 20.3895Z" fill="#F9ED32"/>
<path id="Vector_48" d="M52.0066 29.4681C51.9221 29.3311 51.8295 29.2142 51.737 29.1054C51.6445 29.0007 51.548 28.904 51.4514 28.8113C51.2583 28.634 51.0572 28.4809 50.852 28.356C50.4417 28.1021 50.0112 27.9329 49.5647 27.8241C49.1182 27.7193 48.6596 27.683 48.1769 27.7273C47.9355 27.7515 47.6901 27.7999 47.4367 27.8724C47.312 27.9087 47.1832 27.957 47.0505 28.0094C46.9217 28.0658 46.789 28.1263 46.6482 28.2149C46.7327 28.356 46.8252 28.4688 46.9177 28.5776C47.0102 28.6823 47.1068 28.7831 47.2033 28.8717C47.3964 29.049 47.5976 29.2022 47.8027 29.3271C48.2131 29.5809 48.6435 29.7502 49.09 29.8549C49.5366 29.9557 49.9952 29.996 50.4779 29.9476C50.7193 29.9234 50.9646 29.8751 51.2181 29.8026C51.3428 29.7663 51.4715 29.7179 51.6002 29.6656C51.737 29.6172 51.8698 29.5568 52.0066 29.4681Z" fill="#F9ED32"/>
<path id="Vector_49" d="M49.8221 24.9953C49.7094 24.8785 49.5968 24.7858 49.4841 24.6972C49.3715 24.6125 49.2589 24.536 49.1462 24.4715C48.9209 24.3385 48.6917 24.2338 48.4664 24.1491C48.0118 23.9839 47.5572 23.9114 47.0986 23.8993C46.64 23.8912 46.1814 23.9477 45.7228 24.0968C45.4935 24.1693 45.2602 24.266 45.0309 24.3949C44.9142 24.4594 44.8016 24.5279 44.6849 24.6125C44.5683 24.6931 44.4516 24.7818 44.335 24.8986C44.4476 25.0155 44.5602 25.1122 44.6729 25.1968C44.7855 25.2814 44.8982 25.358 45.0108 25.4225C45.2361 25.5555 45.4654 25.6602 45.6906 25.7448C46.1452 25.9101 46.5998 25.9826 47.0584 25.9906C47.517 25.9987 47.9756 25.9383 48.4342 25.7892C48.6635 25.7166 48.8968 25.6199 49.1261 25.491C49.2428 25.4265 49.3554 25.358 49.4721 25.2774C49.5928 25.1968 49.7094 25.1082 49.8221 24.9953Z" fill="#F9ED32"/>
<path id="Vector_50" d="M48.0323 31.8979C47.9599 31.7528 47.8794 31.6319 47.7949 31.5151C47.7104 31.4022 47.626 31.2975 47.5375 31.1967C47.3605 31.0033 47.1754 30.8341 46.9823 30.689C46.5961 30.3989 46.1818 30.1893 45.7473 30.0483C45.3128 29.9033 44.8583 29.8267 44.3755 29.8307C44.1342 29.8347 43.8848 29.8589 43.6273 29.9113C43.4986 29.9395 43.3658 29.9718 43.2331 30.0161C43.0963 30.0604 42.9595 30.1128 42.8147 30.1853C42.8871 30.3304 42.9676 30.4553 43.048 30.5681C43.1325 30.681 43.217 30.7898 43.3055 30.8865C43.4825 31.0799 43.6675 31.2491 43.8606 31.3942C44.2468 31.6843 44.6612 31.8898 45.0956 32.0349C45.5301 32.1759 45.9847 32.2565 46.4714 32.2485C46.7128 32.2444 46.9622 32.2202 47.2197 32.1679C47.3484 32.1437 47.4811 32.1074 47.6139 32.0671C47.7507 32.0228 47.8874 31.9744 48.0323 31.8979Z" fill="#F9ED32"/>
<path id="Vector_51" d="M10.238 28.231C10.3426 28.1061 10.4512 28.0094 10.5599 27.9167C10.6685 27.828 10.7771 27.7434 10.8857 27.6709C11.1029 27.5258 11.3242 27.409 11.5495 27.3122C11.996 27.1229 12.4466 27.0221 12.9011 26.9899C13.3557 26.9576 13.8183 26.9899 14.285 27.1108C14.5183 27.1712 14.7556 27.2558 14.993 27.3687C15.1137 27.4251 15.2303 27.4895 15.351 27.5661C15.4717 27.6427 15.5924 27.7233 15.7131 27.8321C15.6085 27.957 15.4999 28.0577 15.3912 28.1464C15.2826 28.239 15.174 28.3196 15.0654 28.3922C14.8482 28.5372 14.6269 28.6581 14.4016 28.7508C13.9551 28.9402 13.5045 29.0369 13.05 29.0732C12.5954 29.1054 12.1328 29.0691 11.6661 28.9482C11.4328 28.8878 11.1955 28.8032 10.9581 28.6904C10.8374 28.6339 10.7208 28.5695 10.6001 28.4969C10.4834 28.4204 10.3627 28.3398 10.238 28.231Z" fill="#D4BE29"/>
<path id="Vector_52" d="M14.1321 30.4191C14.2246 30.2861 14.3212 30.1773 14.4217 30.0726C14.5183 29.9718 14.6188 29.8792 14.7234 29.7945C14.9246 29.6253 15.1338 29.4883 15.347 29.3714C15.7694 29.1377 16.2078 28.9927 16.6584 28.9121C17.1089 28.8315 17.5716 28.8194 18.0503 28.8919C18.2876 28.9282 18.533 28.9886 18.7784 29.0773C18.9031 29.1216 19.0278 29.174 19.1566 29.2344C19.2853 29.2989 19.414 29.3674 19.5468 29.4641C19.4542 29.5971 19.3577 29.7099 19.2611 29.8106C19.1646 29.9114 19.064 30.0041 18.9635 30.0887C18.7623 30.2579 18.5531 30.3949 18.3399 30.5118C17.9175 30.7455 17.479 30.8906 17.0245 30.9671C16.5739 31.0437 16.1113 31.0598 15.6326 30.9832C15.3952 30.947 15.1498 30.8865 14.9045 30.7979C14.7798 30.7536 14.655 30.7012 14.5263 30.6407C14.3936 30.5843 14.2648 30.5158 14.1321 30.4191Z" fill="#009444"/>
<path id="Vector_53" d="M3.7854 29.4681C3.86988 29.3311 3.9624 29.2142 4.05493 29.1054C4.14745 29.0007 4.244 28.904 4.34055 28.8113C4.53364 28.634 4.73478 28.4809 4.93994 28.356C5.35027 28.1021 5.78071 27.9329 6.22724 27.8241C6.67377 27.7193 7.13237 27.683 7.6151 27.7273C7.85647 27.7515 8.10186 27.7999 8.3553 27.8724C8.48 27.9087 8.60873 27.957 8.74149 28.0094C8.87022 28.0658 9.00297 28.1263 9.14377 28.2149C9.05929 28.356 8.96676 28.4688 8.87424 28.5776C8.78171 28.6823 8.68517 28.7831 8.58862 28.8717C8.39553 29.049 8.19439 29.2022 7.98922 29.3271C7.5789 29.5809 7.14846 29.7502 6.70193 29.8549C6.2554 29.9557 5.7968 29.996 5.31406 29.9476C5.0727 29.9234 4.8273 29.8751 4.57387 29.8026C4.44916 29.7663 4.32043 29.7179 4.1917 29.6656C4.05493 29.6172 3.92218 29.5568 3.7854 29.4681Z" fill="#F9ED32"/>
<path id="Vector_54" d="M7.76001 31.8979C7.83242 31.7528 7.91288 31.6319 7.99735 31.5151C8.08183 31.4022 8.16631 31.2975 8.25481 31.1967C8.43182 31.0033 8.61687 30.8341 8.80996 30.689C9.19615 30.3989 9.6105 30.1893 10.045 30.0483C10.4794 29.9033 10.934 29.8267 11.4167 29.8307C11.6581 29.8347 11.9075 29.8589 12.165 29.9113C12.2937 29.9395 12.4265 29.9718 12.5592 30.0161C12.696 30.0604 12.8328 30.1128 12.9776 30.1853C12.9052 30.3304 12.8247 30.4553 12.7443 30.5681C12.6598 30.681 12.5753 30.7898 12.4868 30.8865C12.3098 31.0799 12.1247 31.2491 11.9316 31.3942C11.5455 31.6843 11.1311 31.8898 10.6966 32.0349C10.2622 32.1759 9.80761 32.2565 9.32085 32.2485C9.07949 32.2444 8.83007 32.2202 8.57261 32.1679C8.44389 32.1437 8.31113 32.1074 8.17838 32.0671C8.04161 32.0228 7.90483 31.9744 7.76001 31.8979Z" fill="#F9ED32"/>
<path id="Vector_55" d="M13.1665 25.491C13.2872 25.3822 13.4079 25.2975 13.5286 25.221C13.6492 25.1444 13.7659 25.0799 13.8866 25.0235C14.1239 24.9067 14.3573 24.8221 14.5906 24.7576C15.0572 24.6327 15.5198 24.5924 15.9744 24.6206C16.433 24.6488 16.8836 24.7455 17.3301 24.9309C17.5554 25.0235 17.7766 25.1404 17.9939 25.2814C18.1025 25.354 18.2151 25.4345 18.3237 25.5232C18.4323 25.6159 18.541 25.7126 18.6496 25.8375C18.5289 25.9463 18.4082 26.0309 18.2875 26.1075C18.1668 26.184 18.0502 26.2485 17.9295 26.3049C17.6922 26.4218 17.4588 26.5064 17.2255 26.5709C16.7589 26.6958 16.2962 26.7361 15.8417 26.7039C15.3871 26.6716 14.9325 26.5749 14.486 26.3936C14.2607 26.3009 14.0395 26.184 13.8222 26.043C13.7136 25.9705 13.601 25.8899 13.4924 25.8012C13.3797 25.7126 13.2711 25.6159 13.1665 25.491Z" fill="#009444"/>
<path id="Vector_56" d="M19.1646 23.6293C19.3174 23.5769 19.4622 23.5487 19.603 23.5286C19.7438 23.5084 19.8766 23.4923 20.0093 23.4883C20.2708 23.4762 20.5202 23.4923 20.7616 23.5245C21.2403 23.593 21.6788 23.7421 22.0851 23.9476C22.4914 24.1572 22.8695 24.4231 23.2075 24.7697C23.3764 24.9429 23.5333 25.1364 23.6781 25.358C23.7505 25.4668 23.8189 25.5836 23.8833 25.7126C23.9477 25.8415 24.008 25.9745 24.0563 26.1276C23.8994 26.18 23.7586 26.2082 23.6178 26.2324C23.477 26.2525 23.3442 26.2687 23.2115 26.2727C22.95 26.2848 22.7006 26.2727 22.4592 26.2364C21.9805 26.1679 21.542 26.0188 21.1357 25.8093C20.7294 25.5998 20.3513 25.3298 20.0134 24.9832C19.8444 24.81 19.6875 24.6165 19.5427 24.3949C19.4703 24.2861 19.4019 24.1693 19.3375 24.0403C19.2772 23.9194 19.2128 23.7865 19.1646 23.6293Z" fill="#1C442A"/>
<path id="Vector_57" d="M37.263 27.5219C37.1302 27.4292 37.0015 27.3607 36.8728 27.3002C36.744 27.2398 36.6193 27.1914 36.4946 27.1471C36.2452 27.0625 36.0038 27.0061 35.7625 26.9698C35.2838 26.9013 34.8211 26.9215 34.3706 27.0061C33.92 27.0907 33.4856 27.2398 33.0632 27.4775C32.854 27.5984 32.6488 27.7395 32.4477 27.9087C32.3471 27.9933 32.2506 28.086 32.15 28.1908C32.0535 28.2955 31.9569 28.4043 31.8684 28.5413C32.0012 28.634 32.1299 28.7025 32.2586 28.763C32.3873 28.8234 32.5121 28.8758 32.6368 28.9161C32.8862 29.0007 33.1275 29.0571 33.3689 29.0934C33.8476 29.1619 34.3102 29.1417 34.7608 29.0571C35.2113 28.9725 35.6458 28.8194 36.0682 28.5816C36.2774 28.4607 36.4826 28.3197 36.6837 28.1505C36.7843 28.0658 36.8848 27.9732 36.9814 27.8684C37.0779 27.7677 37.1704 27.6589 37.263 27.5219Z" fill="#1C442A"/>
<path id="Vector_58" d="M36.4664 23.6454C36.3136 23.593 36.1687 23.5648 36.0279 23.5447C35.8871 23.5245 35.7544 23.5084 35.6216 23.5044C35.3602 23.4923 35.1107 23.5084 34.8694 23.5406C34.3907 23.6091 33.9522 23.7582 33.5459 23.9637C33.1396 24.1733 32.7614 24.4392 32.4235 24.7858C32.2546 24.959 32.0977 25.1525 31.9528 25.3741C31.8804 25.4829 31.8121 25.5997 31.7477 25.7287C31.6833 25.8576 31.623 25.9906 31.5747 26.1437C31.7316 26.1961 31.8724 26.2243 32.0132 26.2485C32.154 26.2686 32.2867 26.2848 32.4195 26.2888C32.681 26.3009 32.9304 26.2888 33.1718 26.2525C33.6505 26.184 34.089 26.0349 34.4953 25.8254C34.9016 25.6159 35.2797 25.3459 35.6176 24.9993C35.7866 24.8261 35.9435 24.6327 36.0883 24.411C36.1607 24.3022 36.2291 24.1854 36.2934 24.0564C36.3578 23.9315 36.4182 23.7985 36.4664 23.6454Z" fill="#1C442A"/>
<path id="Vector_59" d="M5.38232 24.7132C5.49496 24.5964 5.6076 24.5037 5.72024 24.4151C5.83288 24.3304 5.94552 24.2539 6.05815 24.1894C6.28343 24.0564 6.51273 23.9517 6.73801 23.867C7.19258 23.7018 7.64716 23.6293 8.10576 23.6172C8.56436 23.6091 9.02296 23.6656 9.48155 23.8147C9.71085 23.8872 9.94418 23.9839 10.1735 24.1128C10.2901 24.1773 10.4028 24.2458 10.5194 24.3304C10.6361 24.411 10.7528 24.4997 10.8694 24.6165C10.7568 24.7334 10.6441 24.8301 10.5315 24.9147C10.4189 24.9993 10.3062 25.0759 10.1936 25.1404C9.96831 25.2734 9.73901 25.3781 9.51374 25.4627C9.05916 25.628 8.60458 25.7005 8.14599 25.7085C7.68739 25.7166 7.22879 25.6562 6.77019 25.5071C6.54089 25.4345 6.30757 25.3378 6.07827 25.2089C5.96161 25.1444 5.84897 25.0759 5.73231 24.9953C5.61565 24.9147 5.49899 24.8261 5.38232 24.7132Z" fill="#F9ED32"/>
</g>
</g>
</g>
</g>
<defs>
<clipPath id="clip0_12_0">
<rect width="60" height="60" fill="white"/>
</clipPath>
</defs>
</svg>
